<?xml version="1.0" encoding="UTF-8" standalone="no"?>
<!DOCTYPE svg PUBLIC "-//W3C//DTD SVG 1.1//EN" "http://www.w3.org/Graphics/SVG/1.1/DTD/svg11.dtd">
<svg version="1.1" 
    xmlns="http://www.w3.org/2000/svg" 
    xmlns:xlink="http://www.w3.org/1999/xlink" preserveAspectRatio="xMidYMid meet" viewBox="0 0 640 640" width="640" height="640">
    <defs>
        <path d="M546.01 126.64C551.54 126.64 556.01 131.12 556.01 136.64C556.01 147.79 556.01 171.23 556.01 182.38C556.01 187.9 551.54 192.38 546.01 192.38C453.61 192.38 186.39 192.38 93.99 192.38C88.46 192.38 83.99 187.9 83.99 182.38C83.99 171.23 83.99 147.79 83.99 136.64C83.99 131.12 88.46 126.64 93.99 126.64C186.39 126.64 453.61 126.64 546.01 126.64Z" id="b1r1CS3NNf"></path>
        <path d="M546.01 442.24C551.54 442.24 556.01 446.71 556.01 452.24C556.01 463.38 556.01 486.83 556.01 497.97C556.01 503.49 551.54 507.97 546.01 507.97C453.61 507.97 186.39 507.97 93.99 507.97C88.46 507.97 83.99 503.49 83.99 497.97C83.99 486.83 83.99 463.38 83.99 452.24C83.99 446.71 88.46 442.24 93.99 442.24C186.39 442.24 453.61 442.24 546.01 442.24Z" id="aHHG5kdIw"></path>
        <path d="M546.01 284.41C551.54 284.41 556.01 288.88 556.01 294.41C556.01 305.55 556.01 328.99 556.01 340.14C556.01 345.66 551.54 350.14 546.01 350.14C453.61 350.14 186.39 350.14 93.99 350.14C88.46 350.14 83.99 345.66 83.99 340.14C83.99 328.99 83.99 305.55 83.99 294.41C83.99 288.88 88.46 284.41 93.99 284.41C186.39 284.41 453.61 284.41 546.01 284.41Z" id="b1zjVyOABV"></path>
    </defs>
    <g>
        <g>
            <g>
                <use xlink:href="#b1r1CS3NNf" opacity="1" fill="#575757" fill-opacity="1"></use>
            </g>
            <g>
                <use xlink:href="#aHHG5kdIw" opacity="1" fill="#575757" fill-opacity="1"></use>
            </g>
            <g>
                <use xlink:href="#b1zjVyOABV" opacity="1" fill="#575757" fill-opacity="1"></use>
            </g>
        </g>
    </g>
</svg>