<?xml version="1.0" encoding="UTF-8"?>
<svg width="597px" height="245px" viewBox="0 0 597 245" version="1.1" xmlns="http://www.w3.org/2000/svg" xmlns:xlink="http://www.w3.org/1999/xlink">
    <!-- Generator: Sketch 42 (36781) - http://www.bohemiancoding.com/sketch -->
    <title>logo-text</title>
    <desc>Created with Sketch.</desc>
    <defs>
        <path d="M31.056,0.504 C23.136,0.504 17.52,6.12 17.52,13.32 C17.52,20.664 23.136,26.136 31.056,26.136 C38.976,26.136 44.448,20.664 44.448,13.32 C44.448,6.12 38.976,0.504 31.056,0.504 Z M44.736,40.536 L1.104,40.536 L1.104,56.088 L21.984,56.088 L21.984,101.448 L0.384,101.448 L0.384,117 L64.32,117 L64.32,101.448 L44.736,101.448 L44.736,40.536 Z M127.968,7.704 L150.72,10.152 L150.72,117 L130.56,117 L129.408,108.648 C125.232,114.552 118.32,119.448 108.24,119.448 C89.232,119.448 80.16,103.176 80.16,78.552 C80.16,54.936 91.824,37.944 110.688,37.944 C117.456,37.944 123.36,40.392 127.968,45.144 L127.968,7.704 Z M116.736,54.648 C108.816,54.648 103.632,61.56 103.632,78.696 C103.632,97.56 108.528,102.744 115.44,102.744 C120.624,102.744 124.656,99.432 127.968,93.96 L127.968,60.984 C124.8,56.952 121.488,54.648 116.736,54.648 Z M243.168,40.536 L219.84,40.536 L203.712,102.456 L188.88,40.536 L164.832,40.536 L189.024,117 L196.944,117 C192.768,126.792 187.296,131.112 172.32,132.984 L174.912,149.112 C198.096,147.816 210.912,137.304 217.68,117 L243.168,40.536 Z M297.168,10.152 L251.952,10.152 L251.952,25.704 L274.416,25.704 L274.416,90.072 C274.416,108.072 282.768,119.448 301.2,119.448 C310.992,119.448 318.192,117.144 323.232,114.408 L317.904,99.144 C314.736,100.44 310.992,101.448 306.96,101.448 C300.912,101.448 297.168,99.144 297.168,92.952 L297.168,10.152 Z M383.568,10.152 L338.352,10.152 L338.352,25.704 L360.816,25.704 L360.816,90.072 C360.816,108.072 369.168,119.448 387.6,119.448 C397.392,119.448 404.592,117.144 409.632,114.408 L404.304,99.144 C401.136,100.44 397.392,101.448 393.36,101.448 C387.312,101.448 383.568,99.144 383.568,92.952 L383.568,10.152 Z" id="path-1"></path>
        <filter x="-50%" y="-50%" width="200%" height="200%" filterUnits="objectBoundingBox" id="filter-2">
            <feOffset dx="2" dy="3" in="SourceAlpha" result="shadowOffsetOuter1"></feOffset>
            <feGaussianBlur stdDeviation="2" in="shadowOffsetOuter1" result="shadowBlurOuter1"></feGaussianBlur>
            <feColorMatrix values="0 0 0 0 0   0 0 0 0 0   0 0 0 0 0  0 0 0 0.5 0" type="matrix" in="shadowBlurOuter1"></feColorMatrix>
        </filter>
    </defs>
    <g id="Page-1" stroke="none" stroke-width="1" fill="none" fill-rule="evenodd">
        <g id="logo-text" transform="translate(-21.000000, -11.000000)">
            <g id="Page-1">
                <g id="logo" transform="translate(77.526751, 133.741740) rotate(15.000000) translate(-77.526751, -133.741740) translate(31.026751, 7.741740)" fill-rule="nonzero" fill="#5601FF">
                    <g id="Page-1">
                        <g id="Artboard-Copy-11">
                            <path d="M43.7647062,130.010934 L43.7647062,103.85772 L5.47058836,74.9550197 L5.47058836,101.108234 L43.7647062,130.010934 Z M49.2352938,130.017481 L87.5294116,101.108416 L87.5294116,74.9557476 L49.2352938,103.864812 L49.2352938,130.017481 Z M43.7647062,6.34219776 L5.47058836,15.9173922 L5.47058836,68.07294 L43.7647062,96.9756401 L43.7647062,6.34219776 Z M49.2352938,6.21469469 L49.2352938,96.982187 L87.5294116,68.0731214 L87.5294116,15.9108478 L49.2352938,6.21469469 Z M43.7647062,163.046228 L43.7647062,136.893015 L5.47058836,107.990314 L5.47058836,134.143528 L43.7647062,163.046228 Z M49.2352938,163.052775 L87.5294116,134.14371 L87.5294116,107.991042 L49.2352938,136.900107 L49.2352938,163.052775 Z M43.7647062,196.081523 L43.7647062,169.928309 L5.47058836,141.025608 L5.47058836,167.178822 L43.7647062,196.081523 Z M49.2352938,196.088069 L87.5294116,167.179004 L87.5294116,141.026336 L49.2352938,169.935401 L49.2352938,196.088069 Z M49.2352938,202.970695 L49.2352938,248.601599 C49.2352938,250.122007 48.0106612,252 46.5,252 C44.9893388,252 43.7647062,250.122007 43.7647062,248.601599 L43.7647062,202.963603 L1.09423299,170.757824 C0.405402023,170.237925 -8.52651283e-14,169.421943 -8.52651283e-14,168.555384 L-8.52651283e-14,13.7647059 C-8.52651283e-14,12.4999632 0.8562231,11.3979267 2.07578432,11.0929833 L46.1151846,0.08121852 C46.5509275,-0.0277362 47.0066204,-0.027058896 47.4420421,0.083190816 L90.9320534,11.0949556 C92.1477938,11.4027836 93,12.5029948 93,13.7647059 L93,168.555384 C93,169.421841 92.5946931,170.237738 91.9059981,170.757649 L49.2352938,202.970695 Z" id="Combined-Shape"></path>
                        </g>
                    </g>
                </g>
                <g id="idyll" transform="translate(202.000000, 73.000000)">
                    <g>
                        <use fill="black" fill-opacity="1" filter="url(#filter-2)" xlink:href="#path-1"></use>
                        <use fill="#FFFFFF" fill-rule="evenodd" xlink:href="#path-1"></use>
                    </g>
                </g>
            </g>
        </g>
    </g>
</svg>