<?xml version="1.0" encoding="UTF-8" standalone="no"?>
<svg width="500px" height="500px" viewBox="0 0 500 500" version="1.1" xmlns="http://www.w3.org/2000/svg" xmlns:xlink="http://www.w3.org/1999/xlink">
    <!-- Generator: Sketch 42 (36781) - http://www.bohemiancoding.com/sketch -->
    <title>Artboard Copy 11</title>
    <desc>Created with Sketch.</desc>
    <defs></defs>
    <g id="Page-1" stroke="none" stroke-width="1" fill="none" fill-rule="evenodd">
        <g id="Artboard-Copy-11" fill-rule="nonzero" fill="#5601FF">
            <path d="M246.176471,255.570742 L246.176471,219.246834 L192.647059,179.104194 L192.647059,215.428103 L246.176471,255.570742 Z M253.823529,255.579835 L307.352941,215.428355 L307.352941,179.105205 L253.823529,219.256684 L253.823529,255.579835 Z M246.176471,83.808608 L192.647059,97.1074891 L192.647059,169.54575 L246.176471,209.688389 L246.176471,83.808608 Z M253.823529,83.6315204 L253.823529,209.697482 L307.352941,169.546002 L307.352941,97.0983997 L253.823529,83.6315204 Z M246.176471,301.453095 L246.176471,265.129187 L192.647059,224.986547 L192.647059,261.310456 L246.176471,301.453095 Z M253.823529,301.462187 L307.352941,261.310708 L307.352941,224.987558 L253.823529,265.139037 L253.823529,301.462187 Z M246.176471,347.335448 L246.176471,311.01154 L192.647059,270.8689 L192.647059,307.192809 L246.176471,347.335448 Z M253.823529,347.34454 L307.352941,307.193061 L307.352941,270.869911 L253.823529,311.02139 L253.823529,347.34454 Z M253.823529,356.903743 L253.823529,420.279999 C253.823529,422.391676 252.111677,425 250,425 C247.888323,425 246.176471,422.391676 246.176471,420.279999 L246.176471,356.893893 L186.529573,312.163644 C185.566691,311.441562 185,310.308254 185,309.1047 L185,94.1176471 C185,92.36106 186.196871,90.8304537 187.901634,90.4069212 L249.462086,75.1128035 C250.071189,74.9614775 250.708179,74.9624182 251.316833,75.1155428 L312.109322,90.4096605 C313.808744,90.8371994 315,92.3652706 315,94.1176471 L315,309.1047 C315,310.308112 314.433442,311.441303 313.47075,312.163402 L253.823529,356.903743 Z" id="Combined-Shape"></path>
        </g>
    </g>
</svg>