<?xml version="1.0" encoding="UTF-8"?>
<svg width="36px" height="67px" viewBox="0 0 36 67" version="1.1" xmlns="http://www.w3.org/2000/svg" xmlns:xlink="http://www.w3.org/1999/xlink">
    <!-- Generator: Sketch 46.2 (44496) - http://www.bohemiancoding.com/sketch -->
    <title>logo</title>
    <desc>Created with Sketch.</desc>
    <defs></defs>
    <g id="Page-1" stroke="none" stroke-width="1" fill="none" fill-rule="evenodd">
        <g id="logo" transform="translate(16.269246, 33.852185) rotate(-345.000000) translate(-16.269246, -33.852185) translate(3.269246, -0.647815)" fill-rule="nonzero" fill="#6122FB">
            <g id="Page-1" transform="translate(0.000000, 0.000000)">
                <g id="Artboard-Copy-11" transform="translate(0.000000, 0.000000)">
                    <path d="M11.8368365,35.1634525 L11.8368365,28.0899144 L1.47960458,20.2727354 L1.47960458,27.3462737 L11.8368365,35.1634525 Z M13.3164408,35.1652232 L23.6736727,27.3463227 L23.6736727,20.2729323 L13.3164408,28.0918326 L13.3164408,35.1652232 Z M11.8368365,1.71534472 L1.47960458,4.30510299 L1.47960458,18.4113714 L11.8368365,26.2285502 L11.8368365,1.71534472 Z M13.3164408,1.68085956 L13.3164408,26.2303209 L23.6736727,18.4114204 L23.6736727,4.30333297 L13.3164408,1.68085956 Z M11.8368365,44.0983548 L11.8368365,37.0248167 L1.47960458,29.2076377 L1.47960458,36.281176 L11.8368365,44.0983548 Z M13.3164408,44.1001253 L23.6736727,36.281225 L23.6736727,29.2078346 L13.3164408,37.0267349 L13.3164408,44.1001253 Z M11.8368365,53.0332571 L11.8368365,45.959719 L1.47960458,38.14254 L1.47960458,45.2160783 L11.8368365,53.0332571 Z M13.3164408,53.0350276 L23.6736727,45.2161273 L23.6736727,38.1427369 L13.3164408,45.9616372 L13.3164408,53.0350276 Z M13.3164408,54.8965395 L13.3164408,67.2381179 C13.3164408,67.6493354 12.9852202,68.1572675 12.5766386,68.1572675 C12.1680571,68.1572675 11.8368365,67.6493354 11.8368365,67.2381179 L11.8368365,54.8946213 L0.295952106,46.1840741 C0.109647199,46.0434594 -2.84217094e-14,45.8227646 -2.84217094e-14,45.5883905 L-2.84217094e-14,3.72287596 C-2.84217094e-14,3.38080689 0.231578678,3.08274419 0.561427728,3.00026757 L12.4725594,0.0219667943 C12.5904128,-0.00750168191 12.7136619,-0.00731849465 12.8314284,0.022500232 L24.5939694,3.00080101 C24.922785,3.08405782 25.1532773,3.38162684 25.1532773,3.72287596 L25.1532773,45.5883905 C25.1532773,45.822737 25.0436558,46.043409 24.8573877,46.1840269 L13.3164408,54.8965395 Z" id="Combined-Shape"></path>
                </g>
            </g>
        </g>
    </g>
</svg>